<svg xmlns="http://www.w3.org/2000/svg" viewBox="0 0 1200 900" role="img" aria-labelledby="heroTitle heroDesc">
  <title id="heroTitle">Employment agency illustration for India-focused hiring</title>
  <desc id="heroDesc">A warm office illustration showing recruiters, candidates, resume cards, city buildings, and growth elements.</desc>
  <defs>
    <linearGradient id="bg" x1="0" y1="0" x2="1" y2="1">
      <stop offset="0%" stop-color="#f7fbf3" />
      <stop offset="55%" stop-color="#eef6e8" />
      <stop offset="100%" stop-color="#fff4dc" />
    </linearGradient>
    <linearGradient id="floor" x1="0" y1="0" x2="1" y2="0">
      <stop offset="0%" stop-color="#eaf4e2" />
      <stop offset="100%" stop-color="#f8ead0" />
    </linearGradient>
    <linearGradient id="window" x1="0" y1="0" x2="0" y2="1">
      <stop offset="0%" stop-color="#dff0e3" />
      <stop offset="100%" stop-color="#f8fcf5" />
    </linearGradient>
    <linearGradient id="chart" x1="0" y1="1" x2="1" y2="0">
      <stop offset="0%" stop-color="#1f6a45" />
      <stop offset="100%" stop-color="#31c06a" />
    </linearGradient>
  </defs>

  <rect width="1200" height="900" fill="url(#bg)" />
  <circle cx="1010" cy="118" r="118" fill="#f3d27b" fill-opacity="0.38" />
  <circle cx="180" cy="108" r="92" fill="#d8f0d6" fill-opacity="0.75" />
  <circle cx="1076" cy="788" r="136" fill="#f3e1b3" fill-opacity="0.45" />

  <rect x="60" y="92" width="1080" height="502" rx="38" fill="#ffffff" fill-opacity="0.72" />
  <rect x="96" y="130" width="1008" height="382" rx="28" fill="url(#window)" stroke="#dce8da" stroke-width="4" />

  <g opacity="0.95">
    <rect x="150" y="236" width="84" height="204" rx="8" fill="#d7e8db" />
    <rect x="242" y="194" width="110" height="246" rx="8" fill="#c9dfcf" />
    <rect x="366" y="220" width="88" height="220" rx="8" fill="#d8e8d6" />
    <rect x="468" y="172" width="130" height="268" rx="8" fill="#bfd8c6" />
    <rect x="618" y="208" width="94" height="232" rx="8" fill="#d3e5d5" />
    <rect x="728" y="160" width="118" height="280" rx="8" fill="#c3dac8" />
    <rect x="860" y="218" width="92" height="222" rx="8" fill="#d5e7d7" />
    <rect x="968" y="184" width="96" height="256" rx="8" fill="#c5ddca" />
  </g>

  <path d="M90 594H1110V900H90Z" fill="url(#floor)" />
  <ellipse cx="620" cy="690" rx="330" ry="64" fill="#dcebd8" />

  <g transform="translate(756 110)">
    <rect x="0" y="0" width="278" height="176" rx="28" fill="#ffffff" stroke="#d9e4d4" stroke-width="4" />
    <rect x="28" y="28" width="126" height="16" rx="8" fill="#dce9db" />
    <rect x="28" y="58" width="92" height="12" rx="6" fill="#e8f2e7" />
    <rect x="28" y="128" width="86" height="18" rx="9" fill="#e8f2e7" />
    <path d="M162 126l26-30 22 14 34-48 10 8-44 62-20-14-20 24Z" fill="none" stroke="url(#chart)" stroke-width="10" stroke-linecap="round" stroke-linejoin="round" />
    <circle cx="162" cy="126" r="8" fill="#31c06a" />
    <circle cx="188" cy="96" r="8" fill="#31c06a" />
    <circle cx="210" cy="110" r="8" fill="#31c06a" />
    <circle cx="244" cy="62" r="8" fill="#31c06a" />
  </g>

  <g transform="translate(84 154)">
    <rect x="0" y="0" width="240" height="154" rx="24" fill="#ffffff" stroke="#d9e4d4" stroke-width="4" />
    <circle cx="54" cy="56" r="28" fill="#f0c7a0" />
    <path d="M30 56c4-28 44-40 56-8-2 14-10 24-28 24-14 0-24-6-28-16Z" fill="#184f35" />
    <rect x="24" y="96" width="64" height="26" rx="13" fill="#1f6a45" />
    <rect x="106" y="34" width="96" height="16" rx="8" fill="#dce9db" />
    <rect x="106" y="64" width="78" height="12" rx="6" fill="#edf4ea" />
    <rect x="106" y="92" width="92" height="12" rx="6" fill="#edf4ea" />
    <rect x="106" y="118" width="62" height="12" rx="6" fill="#edf4ea" />
    <circle cx="206" cy="118" r="12" fill="#31c06a" />
    <path d="m201 118 4 4 7-9" fill="none" stroke="#ffffff" stroke-width="3" stroke-linecap="round" stroke-linejoin="round" />
  </g>

  <g transform="translate(286 452)">
    <ellipse cx="202" cy="188" rx="168" ry="32" fill="#cfe2cf" />
    <path d="M162 70c10-28 42-46 72-46 29 0 58 18 70 46v94h-142Z" fill="#e4b691" />
    <path d="M178 80c12-22 34-36 57-36 25 0 48 14 61 36v90H178Z" fill="#f7c59d" />
    <path d="M180 96c12-38 38-56 56-56 30 0 46 22 54 56-18 6-28 8-54 8-18 0-36-2-56-8Z" fill="#163f2d" />
    <rect x="174" y="176" width="128" height="164" rx="34" fill="#1f6a45" />
    <rect x="154" y="204" width="52" height="134" rx="26" fill="#1f6a45" />
    <rect x="270" y="204" width="52" height="134" rx="26" fill="#1f6a45" />
    <rect x="206" y="176" width="34" height="78" rx="16" fill="#f7c59d" />
    <rect x="236" y="176" width="34" height="78" rx="16" fill="#f7c59d" />
    <rect x="198" y="338" width="40" height="122" rx="18" fill="#173827" />
    <rect x="238" y="338" width="40" height="122" rx="18" fill="#173827" />
  </g>

  <g transform="translate(598 470)">
    <ellipse cx="194" cy="166" rx="160" ry="30" fill="#cfdfcf" />
    <path d="M130 70c18-34 54-52 84-52 35 0 72 19 88 52v92H130Z" fill="#efb98a" />
    <path d="M148 84c20-28 42-42 68-42 32 0 58 18 72 42v84H148Z" fill="#f5c39c" />
    <path d="M150 96c10-42 34-66 62-66 33 0 60 24 72 66-20 10-52 14-74 14-26 0-42-4-60-14Z" fill="#5c3424" />
    <rect x="144" y="160" width="140" height="172" rx="36" fill="#d5a22a" />
    <rect x="116" y="186" width="56" height="142" rx="28" fill="#d5a22a" />
    <rect x="258" y="186" width="56" height="142" rx="28" fill="#d5a22a" />
    <rect x="188" y="160" width="40" height="84" rx="18" fill="#f5c39c" />
    <rect x="224" y="160" width="40" height="84" rx="18" fill="#f5c39c" />
    <rect x="182" y="332" width="42" height="128" rx="18" fill="#5b3c28" />
    <rect x="226" y="332" width="42" height="128" rx="18" fill="#5b3c28" />
  </g>

  <g transform="translate(454 510)">
    <rect x="0" y="76" width="168" height="102" rx="22" fill="#ffffff" stroke="#d9e4d4" stroke-width="4" />
    <rect x="24" y="26" width="120" height="74" rx="18" fill="#f8faf7" stroke="#d9e4d4" stroke-width="4" />
    <rect x="46" y="48" width="76" height="10" rx="5" fill="#dce9db" />
    <rect x="46" y="68" width="54" height="8" rx="4" fill="#ebf3e8" />
    <path d="M78 100V132" stroke="#1f6a45" stroke-width="18" stroke-linecap="round" />
    <path d="M90 104V132" stroke="#f5c39c" stroke-width="16" stroke-linecap="round" />
  </g>

  <g transform="translate(840 514)">
    <rect x="0" y="0" width="220" height="152" rx="24" fill="#ffffff" stroke="#d9e4d4" stroke-width="4" />
    <rect x="28" y="28" width="82" height="82" rx="18" fill="#f4f8f1" />
    <circle cx="70" cy="64" r="24" fill="#f1c19b" />
    <path d="M46 66c6-24 39-30 48-6-3 12-12 18-24 18-12 0-20-4-24-12Z" fill="#173f2d" />
    <rect x="130" y="36" width="60" height="14" rx="7" fill="#dce9db" />
    <rect x="130" y="62" width="48" height="10" rx="5" fill="#eaf2e7" />
    <rect x="130" y="88" width="44" height="10" rx="5" fill="#eaf2e7" />
    <rect x="28" y="122" width="164" height="12" rx="6" fill="#edf4ea" />
  </g>

  <g transform="translate(878 356)">
    <path d="M58 0c30 0 58 24 58 56 0 36-32 66-58 92-26-26-58-56-58-92C0 24 28 0 58 0Z" fill="#1f6a45" />
    <circle cx="58" cy="56" r="22" fill="#f7fbf4" />
    <circle cx="58" cy="56" r="8" fill="#d5a22a" />
  </g>

  <g transform="translate(168 616)">
    <rect x="0" y="0" width="188" height="102" rx="24" fill="#ffffff" stroke="#d9e4d4" stroke-width="4" />
    <rect x="24" y="24" width="40" height="40" rx="12" fill="#1f6a45" />
    <path d="M34 44h20M44 34v20" stroke="#ffffff" stroke-width="5" stroke-linecap="round" />
    <rect x="82" y="28" width="80" height="14" rx="7" fill="#dce9db" />
    <rect x="82" y="54" width="62" height="10" rx="5" fill="#ebf3e8" />
    <rect x="82" y="74" width="48" height="10" rx="5" fill="#ebf3e8" />
  </g>

  <g transform="translate(930 678)">
    <rect x="0" y="0" width="142" height="70" rx="18" fill="#1f6a45" />
    <path d="M30 40h22l14-18 18 14 24-28" fill="none" stroke="#ffffff" stroke-width="8" stroke-linecap="round" stroke-linejoin="round" />
  </g>
</svg>
