<svg xmlns="http://www.w3.org/2000/svg" viewBox="0 0 96 96">
  <defs>
    <linearGradient id="bg-bfsi" x1="0" y1="0" x2="1" y2="1">
      <stop offset="0%" stop-color="#f7fbf5" />
      <stop offset="100%" stop-color="#ebf5eb" />
    </linearGradient>
  </defs>
  <circle cx="48" cy="48" r="46" fill="url(#bg-bfsi)" stroke="#d5e6d5" stroke-width="2" />
  <rect x="20" y="30" width="56" height="36" rx="10" fill="#ffffff" stroke="#d7e4d7" stroke-width="2" />
  <path d="M28 38h40v8H28Zm0 14h26v6H28Zm0 12h20v4H28Z" fill="#d9e8da" />
  <circle cx="66" cy="62" r="11" fill="#1f6a45" />
  <path d="M66 56v12M61 61c1-2 3-3 5-3 3 0 5 1 5 4 0 5-10 3-10 8 0 2 2 4 5 4 2 0 4-1 5-3" fill="none" stroke="#fff" stroke-width="2.8" stroke-linecap="round" stroke-linejoin="round" />
</svg>
