<svg xmlns="http://www.w3.org/2000/svg" xmlns:xlink="http://www.w3.org/1999/xlink" width="336" zoomAndPan="magnify" viewBox="0 0 252 143.999998" height="192" preserveAspectRatio="xMidYMid meet" version="1.0"><defs><g/><clipPath id="e0310ddb54"><path d="M 60 30.148438 L 106.917969 30.148438 L 106.917969 81 L 60 81 Z M 60 30.148438 " clip-rule="nonzero"/></clipPath><clipPath id="1622a13b2e"><path d="M 65 58 L 106.917969 58 L 106.917969 84 L 65 84 Z M 65 58 " clip-rule="nonzero"/></clipPath><clipPath id="8acbad4c77"><path d="M 22.917969 53 L 72 53 L 72 92 L 22.917969 92 Z M 22.917969 53 " clip-rule="nonzero"/></clipPath><clipPath id="ae825a7441"><path d="M 0.398438 15 L 25 15 L 25 48 L 0.398438 48 Z M 0.398438 15 " clip-rule="nonzero"/></clipPath><clipPath id="4a87d57676"><rect x="0" width="103" y="0" height="61"/></clipPath><clipPath id="cf73cff017"><path d="M 95 3 L 98.878906 3 L 98.878906 10 L 95 10 Z M 95 3 " clip-rule="nonzero"/></clipPath><clipPath id="39b9e86166"><rect x="0" width="99" y="0" height="12"/></clipPath></defs><g clip-path="url(#e0310ddb54)"><path fill="#fec100" d="M 61.964844 79.207031 C 60.394531 77.222656 59.957031 75.859375 60.078125 73.363281 C 60.191406 71.054688 60.808594 69.546875 62.425781 67.625 C 63.808594 65.984375 64.679688 64.902344 65.960938 63.238281 C 67.84375 60.796875 69.53125 58.660156 69.839844 58.332031 C 69.972656 58.191406 70.332031 57.71875 70.640625 57.28125 C 70.945312 56.84375 71.289062 56.390625 71.40625 56.273438 C 71.519531 56.15625 71.8125 55.796875 72.054688 55.472656 C 72.296875 55.152344 72.617188 54.742188 72.765625 54.5625 C 72.917969 54.382812 73.351562 53.832031 73.730469 53.335938 C 74.109375 52.839844 75.433594 51.144531 76.671875 49.570312 C 78.980469 46.632812 80.28125 44.953125 82.632812 41.863281 C 84.730469 39.105469 85.433594 38.195312 85.753906 37.816406 C 85.917969 37.621094 86.753906 36.542969 87.613281 35.414062 C 89.808594 32.527344 91.023438 31.558594 93.628906 30.609375 C 94.644531 30.242188 95.109375 30.167969 96.601562 30.152344 C 98.695312 30.128906 99.652344 30.335938 101.484375 31.207031 C 104.019531 32.414062 106.1875 35.023438 106.886719 37.71875 C 107.246094 39.089844 107.203125 41.914062 106.804688 43.308594 C 106.089844 45.8125 104.917969 47.507812 102.765625 49.15625 C 101.9375 49.789062 100.542969 50.863281 99.664062 51.546875 C 98.785156 52.230469 97.628906 53.132812 97.09375 53.550781 C 96.558594 53.96875 96.046875 54.367188 95.957031 54.441406 C 95.867188 54.511719 94.546875 55.542969 93.015625 56.734375 C 91.488281 57.925781 89.636719 59.367188 88.898438 59.945312 C 88.164062 60.519531 87.136719 61.3125 86.617188 61.710938 C 86.097656 62.109375 85.492188 62.597656 85.273438 62.796875 C 85.050781 62.996094 84.820312 63.15625 84.761719 63.15625 C 84.699219 63.15625 84.53125 63.277344 84.386719 63.421875 C 84.152344 63.65625 81.929688 65.410156 80.445312 66.53125 C 79.679688 67.109375 77.433594 68.863281 74.257812 71.355469 C 72.738281 72.546875 70.316406 74.429688 68.875 75.53125 C 67.433594 76.636719 65.546875 78.101562 64.675781 78.789062 C 63.804688 79.472656 62.988281 80.03125 62.855469 80.03125 C 62.722656 80.03125 62.324219 79.660156 61.964844 79.207031 Z M 61.964844 79.207031 " fill-opacity="1" fill-rule="nonzero"/></g><g clip-path="url(#1622a13b2e)"><path fill="#fec100" d="M 70 83.789062 C 68.296875 83.457031 65.492188 82.433594 65.507812 82.152344 C 65.511719 82.089844 65.78125 81.847656 66.109375 81.613281 C 66.78125 81.132812 72.046875 77.222656 75.890625 74.355469 C 77.292969 73.308594 79.996094 71.304688 81.894531 69.902344 C 83.796875 68.5 85.742188 67.042969 86.21875 66.660156 C 86.699219 66.28125 88.042969 65.285156 89.210938 64.445312 C 90.378906 63.605469 91.578125 62.722656 91.875 62.488281 C 94.6875 60.265625 95.492188 59.726562 96.679688 59.261719 C 100.425781 57.800781 104.84375 59.53125 106.527344 63.117188 C 107.6875 65.59375 107.304688 68.761719 105.582031 70.9375 C 104.984375 71.691406 103.53125 72.820312 102.707031 73.164062 C 101.46875 73.6875 97.914062 74.992188 95.316406 75.882812 C 94.519531 76.15625 93.796875 76.429688 93.707031 76.496094 C 93.617188 76.558594 93.332031 76.664062 93.070312 76.726562 C 92.808594 76.789062 92.289062 76.980469 91.914062 77.152344 C 91.539062 77.320312 91.179688 77.460938 91.109375 77.460938 C 90.972656 77.460938 87.8125 78.613281 86.714844 79.066406 C 86.320312 79.226562 85.269531 79.617188 84.386719 79.929688 C 83.5 80.246094 81.765625 80.875 80.527344 81.335938 C 74.578125 83.550781 73.90625 83.746094 72.089844 83.808594 C 71.164062 83.839844 70.222656 83.832031 70 83.789062 Z M 70 83.789062 " fill-opacity="1" fill-rule="nonzero"/></g><g clip-path="url(#8acbad4c77)"><path fill="#185337" d="M 53.199219 91.691406 C 50.625 91.222656 48.761719 90.449219 46.394531 88.867188 C 44.339844 87.492188 41.828125 84.757812 40.769531 82.742188 C 40.519531 82.269531 39.359375 80.21875 38.1875 78.183594 C 37.015625 76.152344 35.898438 74.199219 35.699219 73.84375 C 35.183594 72.925781 33.058594 69.230469 32.882812 68.945312 C 32.800781 68.8125 32.539062 68.339844 32.304688 67.898438 C 32.066406 67.457031 30.84375 65.289062 29.585938 63.078125 C 28.328125 60.867188 27.175781 58.820312 27.027344 58.53125 C 26.9375 58.25 24.621094 55.0625 23.257812 54.121094 C 23.046875 53.980469 22.914062 53.800781 22.960938 53.730469 C 28.039062 53.941406 35.234375 52.839844 39.984375 54.257812 C 42.789062 55.253906 44.90625 57.074219 46.613281 59.949219 C 47.191406 60.921875 47.664062 61.746094 47.664062 61.785156 C 47.664062 61.824219 47.890625 62.242188 48.164062 62.707031 C 48.441406 63.175781 49.261719 64.609375 49.988281 65.890625 C 50.71875 67.171875 51.601562 68.726562 51.957031 69.34375 C 52.308594 69.964844 52.851562 70.941406 53.160156 71.515625 C 53.46875 72.089844 54.234375 73.464844 54.863281 74.570312 C 55.488281 75.671875 56.277344 77.070312 56.613281 77.675781 C 58.964844 81.902344 61.4375 84.292969 64.957031 85.75 C 66.535156 86.402344 68.933594 86.945312 70.257812 86.945312 C 70.734375 86.945312 71.125 87 71.125 87.066406 C 71.125 87.136719 70.386719 87.511719 69.480469 87.902344 C 68.039062 88.519531 65.347656 89.71875 63.332031 90.632812 C 62.359375 91.074219 60.570312 91.574219 59.3125 91.757812 C 57.789062 91.976562 54.585938 91.941406 53.199219 91.691406 Z M 53.199219 91.691406 " fill-opacity="1" fill-rule="nonzero"/></g><path fill="#1c4e35" d="M 47.074219 113.738281 C 47.03125 113.671875 47.570312 112.550781 48.273438 111.25 C 49.550781 108.875 50.429688 107.214844 52 104.21875 C 53.179688 101.964844 53.828125 101.023438 55.042969 99.800781 C 56.617188 98.210938 56.351562 98.375 64.699219 93.898438 C 69.542969 91.300781 71.734375 90.113281 77.363281 87.027344 C 78.453125 86.433594 79.375 85.980469 79.417969 86.019531 C 79.488281 86.089844 76.730469 91.617188 75.871094 93.132812 C 75.441406 93.886719 74.234375 96.136719 73.882812 96.828125 C 73.75 97.09375 72.882812 98.71875 71.957031 100.445312 C 71.03125 102.167969 69.765625 104.554688 69.144531 105.746094 C 67.464844 108.96875 66.222656 110.523438 64.296875 111.8125 C 62.941406 112.71875 62.234375 113.050781 60.761719 113.464844 C 59.535156 113.808594 59.179688 113.824219 53.3125 113.84375 C 49.921875 113.855469 47.117188 113.808594 47.074219 113.738281 Z M 47.074219 113.738281 " fill-opacity="1" fill-rule="nonzero"/><g transform="matrix(1, 0, 0, 1, 122, 41)"><g clip-path="url(#4a87d57676)"><g clip-path="url(#ae825a7441)"><g fill="#185337" fill-opacity="1"><g transform="translate(1.271108, 46.820981)"><g><path d="M 11.460938 0.261719 C 13.378906 0.261719 14.597656 -0.957031 14.597656 -3.007812 L 14.597656 -14.597656 L 21.132812 -23.878906 C 22.921875 -26.273438 23.617188 -27.363281 23.617188 -28.542969 C 23.617188 -30.109375 22.222656 -31.285156 20.347656 -31.285156 C 19.433594 -31.285156 18.519531 -31.15625 17.082031 -29.0625 L 11.460938 -20.699219 L 6.011719 -28.800781 C 5.359375 -29.761719 4.445312 -31.285156 2.613281 -31.285156 C 0.742188 -31.285156 -0.652344 -30.109375 -0.652344 -28.542969 C -0.652344 -27.320312 0.175781 -26.101562 1.960938 -23.703125 L 8.324219 -14.597656 L 8.324219 -3.007812 C 8.324219 -0.957031 9.585938 0.261719 11.460938 0.261719 Z M 11.460938 0.261719 "/></g></g></g></g><g fill="#185337" fill-opacity="1"><g transform="translate(20.400204, 46.820981)"><g><path d="M 12.460938 0.609375 C 15.730469 0.609375 19 -0.347656 20.960938 -1.785156 C 22.136719 -2.613281 22.832031 -3.660156 22.832031 -4.75 C 22.832031 -6.1875 21.789062 -7.363281 20.261719 -7.363281 C 19.828125 -7.363281 19.261719 -7.144531 18.519531 -6.710938 C 16.734375 -5.578125 14.988281 -4.925781 13.117188 -4.925781 C 9.628906 -4.925781 7.539062 -6.796875 7.40625 -9.542969 L 20.21875 -9.542969 C 22.308594 -9.542969 23.179688 -10.328125 23.179688 -12.289062 C 23.179688 -18.34375 18.910156 -23.792969 12.375 -23.792969 C 5.578125 -23.792969 0.871094 -18.125 0.871094 -11.589844 C 0.871094 -4.707031 5.359375 0.609375 12.460938 0.609375 Z M 7.40625 -13.769531 C 7.539062 -16.339844 9.671875 -18.648438 12.199219 -18.648438 C 14.773438 -18.648438 16.949219 -16.339844 17.039062 -13.769531 Z M 7.40625 -13.769531 "/></g></g></g><g fill="#185337" fill-opacity="1"><g transform="translate(44.322482, 46.820981)"><g><path d="M 4.707031 0.261719 C 6.316406 0.261719 7.144531 -0.695312 7.496094 -1.742188 L 7.539062 -2.222656 L 7.625 -2.222656 C 9.152344 -0.261719 10.980469 0.609375 13.59375 0.609375 C 19.519531 0.609375 24.007812 -4.664062 24.007812 -11.589844 C 24.007812 -18.257812 19.695312 -23.792969 13.59375 -23.792969 C 11.199219 -23.792969 9.5 -23.136719 7.886719 -21.613281 L 7.800781 -21.613281 L 7.800781 -30.457031 C 7.800781 -32.15625 6.625 -33.550781 4.75 -33.550781 C 2.964844 -33.550781 1.742188 -32.15625 1.742188 -30.457031 L 1.742188 -2.875 C 1.742188 -1.132812 2.917969 0.261719 4.707031 0.261719 Z M 12.8125 -5.140625 C 9.71875 -5.140625 7.800781 -7.84375 7.800781 -11.589844 C 7.800781 -15.339844 9.761719 -18.039062 12.765625 -18.039062 C 15.992188 -18.039062 17.867188 -15.292969 17.867188 -11.589844 C 17.867188 -7.84375 15.949219 -5.140625 12.8125 -5.140625 Z M 12.8125 -5.140625 "/></g></g></g><g fill="#185337" fill-opacity="1"><g transform="translate(69.159818, 46.820981)"><g><path d="M 4.75 0.261719 C 6.535156 0.261719 7.800781 -1.132812 7.800781 -2.875 L 7.800781 -30.457031 C 7.800781 -32.15625 6.625 -33.550781 4.75 -33.550781 C 2.964844 -33.550781 1.742188 -32.15625 1.742188 -30.457031 L 1.742188 -2.875 C 1.742188 -1.132812 2.964844 0.261719 4.75 0.261719 Z M 4.75 0.261719 "/></g></g></g><g fill="#185337" fill-opacity="1"><g transform="translate(78.65901, 46.820981)"><g><path d="M 12.460938 0.609375 C 15.730469 0.609375 19 -0.347656 20.960938 -1.785156 C 22.136719 -2.613281 22.832031 -3.660156 22.832031 -4.75 C 22.832031 -6.1875 21.789062 -7.363281 20.261719 -7.363281 C 19.828125 -7.363281 19.261719 -7.144531 18.519531 -6.710938 C 16.734375 -5.578125 14.988281 -4.925781 13.117188 -4.925781 C 9.628906 -4.925781 7.539062 -6.796875 7.40625 -9.542969 L 20.21875 -9.542969 C 22.308594 -9.542969 23.179688 -10.328125 23.179688 -12.289062 C 23.179688 -18.34375 18.910156 -23.792969 12.375 -23.792969 C 5.578125 -23.792969 0.871094 -18.125 0.871094 -11.589844 C 0.871094 -4.707031 5.359375 0.609375 12.460938 0.609375 Z M 7.40625 -13.769531 C 7.539062 -16.339844 9.671875 -18.648438 12.199219 -18.648438 C 14.773438 -18.648438 16.949219 -16.339844 17.039062 -13.769531 Z M 7.40625 -13.769531 "/></g></g></g></g></g><g transform="matrix(1, 0, 0, 1, 126, 92)"><g clip-path="url(#39b9e86166)"><g fill="#185337" fill-opacity="1"><g transform="translate(1.15769, 9.137662)"><g><path d="M 0.585938 0.0507812 C 0.910156 0.0507812 1.078125 -0.0898438 1.226562 -0.570312 L 1.425781 -1.167969 L 3.757812 -1.167969 L 3.964844 -0.554688 C 4.089844 -0.15625 4.230469 0.0507812 4.601562 0.0507812 C 4.941406 0.0507812 5.164062 -0.140625 5.164062 -0.4375 C 5.164062 -0.6875 5.074219 -0.945312 4.992188 -1.167969 L 3.46875 -5.257812 C 3.285156 -5.746094 3.023438 -6.011719 2.597656 -6.011719 C 2.160156 -6.011719 1.902344 -5.746094 1.722656 -5.257812 L 0.214844 -1.226562 C 0.117188 -0.960938 0.015625 -0.679688 0.015625 -0.4375 C 0.015625 -0.140625 0.238281 0.0507812 0.585938 0.0507812 Z M 1.78125 -2.269531 L 2.609375 -4.660156 L 2.625 -4.660156 L 3.402344 -2.269531 Z M 1.78125 -2.269531 "/></g></g></g><g fill="#185337" fill-opacity="1"><g transform="translate(6.34012, 9.137662)"><g><path d="M 2.277344 0.117188 C 2.617188 0.117188 2.988281 0.0429688 3.269531 -0.109375 C 3.550781 -0.25 3.742188 -0.457031 3.742188 -0.703125 C 3.742188 -0.96875 3.519531 -1.207031 3.261719 -1.207031 C 3.1875 -1.207031 3.070312 -1.152344 2.914062 -1.101562 C 2.757812 -1.042969 2.550781 -0.984375 2.292969 -0.984375 C 1.695312 -0.984375 1.324219 -1.515625 1.324219 -2.210938 C 1.324219 -2.898438 1.695312 -3.417969 2.351562 -3.417969 C 2.617188 -3.417969 2.78125 -3.351562 2.988281 -3.261719 C 3.070312 -3.21875 3.164062 -3.195312 3.253906 -3.195312 C 3.542969 -3.195312 3.742188 -3.4375 3.742188 -3.742188 C 3.742188 -4.007812 3.578125 -4.207031 3.296875 -4.328125 C 3.039062 -4.453125 2.691406 -4.519531 2.300781 -4.519531 C 1.042969 -4.519531 0.164062 -3.5 0.164062 -2.195312 C 0.164062 -0.910156 1.042969 0.117188 2.277344 0.117188 Z M 2.277344 0.117188 "/></g></g></g><g fill="#185337" fill-opacity="1"><g transform="translate(10.140018, 9.137662)"><g><path d="M 2.277344 0.117188 C 2.617188 0.117188 2.988281 0.0429688 3.269531 -0.109375 C 3.550781 -0.25 3.742188 -0.457031 3.742188 -0.703125 C 3.742188 -0.96875 3.519531 -1.207031 3.261719 -1.207031 C 3.1875 -1.207031 3.070312 -1.152344 2.914062 -1.101562 C 2.757812 -1.042969 2.550781 -0.984375 2.292969 -0.984375 C 1.695312 -0.984375 1.324219 -1.515625 1.324219 -2.210938 C 1.324219 -2.898438 1.695312 -3.417969 2.351562 -3.417969 C 2.617188 -3.417969 2.78125 -3.351562 2.988281 -3.261719 C 3.070312 -3.21875 3.164062 -3.195312 3.253906 -3.195312 C 3.542969 -3.195312 3.742188 -3.4375 3.742188 -3.742188 C 3.742188 -4.007812 3.578125 -4.207031 3.296875 -4.328125 C 3.039062 -4.453125 2.691406 -4.519531 2.300781 -4.519531 C 1.042969 -4.519531 0.164062 -3.5 0.164062 -2.195312 C 0.164062 -0.910156 1.042969 0.117188 2.277344 0.117188 Z M 2.277344 0.117188 "/></g></g></g><g fill="#185337" fill-opacity="1"><g transform="translate(13.939916, 9.137662)"><g><path d="M 2.367188 0.117188 C 2.988281 0.117188 3.609375 -0.0664062 3.980469 -0.339844 C 4.207031 -0.496094 4.339844 -0.695312 4.339844 -0.902344 C 4.339844 -1.175781 4.140625 -1.398438 3.851562 -1.398438 C 3.765625 -1.398438 3.660156 -1.359375 3.519531 -1.273438 C 3.179688 -1.058594 2.847656 -0.933594 2.492188 -0.933594 C 1.828125 -0.933594 1.433594 -1.292969 1.40625 -1.8125 L 3.839844 -1.8125 C 4.238281 -1.8125 4.40625 -1.960938 4.40625 -2.335938 C 4.40625 -3.484375 3.59375 -4.519531 2.351562 -4.519531 C 1.058594 -4.519531 0.164062 -3.445312 0.164062 -2.203125 C 0.164062 -0.894531 1.019531 0.117188 2.367188 0.117188 Z M 1.40625 -2.617188 C 1.433594 -3.105469 1.839844 -3.542969 2.316406 -3.542969 C 2.804688 -3.542969 3.21875 -3.105469 3.238281 -2.617188 Z M 1.40625 -2.617188 "/></g></g></g><g fill="#185337" fill-opacity="1"><g transform="translate(18.484891, 9.137662)"><g><path d="M 0.902344 0.0507812 C 1.242188 0.0507812 1.480469 -0.214844 1.480469 -0.546875 L 1.480469 -5.785156 C 1.480469 -6.109375 1.257812 -6.375 0.902344 -6.375 C 0.5625 -6.375 0.332031 -6.109375 0.332031 -5.785156 L 0.332031 -0.546875 C 0.332031 -0.214844 0.5625 0.0507812 0.902344 0.0507812 Z M 0.902344 0.0507812 "/></g></g></g><g fill="#185337" fill-opacity="1"><g transform="translate(20.289634, 9.137662)"><g><path d="M 2.367188 0.117188 C 2.988281 0.117188 3.609375 -0.0664062 3.980469 -0.339844 C 4.207031 -0.496094 4.339844 -0.695312 4.339844 -0.902344 C 4.339844 -1.175781 4.140625 -1.398438 3.851562 -1.398438 C 3.765625 -1.398438 3.660156 -1.359375 3.519531 -1.273438 C 3.179688 -1.058594 2.847656 -0.933594 2.492188 -0.933594 C 1.828125 -0.933594 1.433594 -1.292969 1.40625 -1.8125 L 3.839844 -1.8125 C 4.238281 -1.8125 4.40625 -1.960938 4.40625 -2.335938 C 4.40625 -3.484375 3.59375 -4.519531 2.351562 -4.519531 C 1.058594 -4.519531 0.164062 -3.445312 0.164062 -2.203125 C 0.164062 -0.894531 1.019531 0.117188 2.367188 0.117188 Z M 1.40625 -2.617188 C 1.433594 -3.105469 1.839844 -3.542969 2.316406 -3.542969 C 2.804688 -3.542969 3.21875 -3.105469 3.238281 -2.617188 Z M 1.40625 -2.617188 "/></g></g></g><g fill="#185337" fill-opacity="1"><g transform="translate(24.834609, 9.137662)"><g><path d="M 0.925781 0.0507812 C 1.257812 0.0507812 1.5 -0.214844 1.5 -0.546875 L 1.5 -2.285156 C 1.5 -2.839844 1.664062 -3.136719 2.285156 -3.296875 C 2.957031 -3.476562 3.023438 -3.675781 3.023438 -3.925781 C 3.023438 -4.253906 2.757812 -4.519531 2.410156 -4.519531 C 2.078125 -4.519531 1.761719 -4.304688 1.507812 -3.957031 L 1.488281 -3.957031 L 1.472656 -4.074219 C 1.414062 -4.273438 1.25 -4.453125 0.917969 -4.453125 C 0.585938 -4.453125 0.347656 -4.1875 0.347656 -3.859375 L 0.347656 -0.546875 C 0.347656 -0.214844 0.585938 0.0507812 0.925781 0.0507812 Z M 0.925781 0.0507812 "/></g></g></g><g fill="#185337" fill-opacity="1"><g transform="translate(27.7073, 9.137662)"><g><path d="M 2.136719 0.117188 C 2.632812 0.117188 2.988281 -0.0507812 3.269531 -0.421875 L 3.285156 -0.421875 L 3.304688 -0.332031 C 3.359375 -0.132812 3.519531 0.0507812 3.832031 0.0507812 C 4.171875 0.0507812 4.394531 -0.214844 4.394531 -0.546875 L 4.394531 -3.859375 C 4.394531 -4.1875 4.171875 -4.453125 3.832031 -4.453125 C 3.519531 -4.453125 3.359375 -4.273438 3.304688 -4.074219 L 3.285156 -3.980469 L 3.269531 -3.980469 C 2.972656 -4.355469 2.632812 -4.519531 2.136719 -4.519531 C 1.019531 -4.519531 0.164062 -3.5 0.164062 -2.203125 C 0.164062 -0.894531 1.011719 0.117188 2.136719 0.117188 Z M 2.285156 -0.976562 C 1.695312 -0.976562 1.324219 -1.488281 1.324219 -2.203125 C 1.324219 -2.90625 1.695312 -3.425781 2.277344 -3.425781 C 2.890625 -3.425781 3.246094 -2.90625 3.246094 -2.203125 C 3.246094 -1.488281 2.882812 -0.976562 2.285156 -0.976562 Z M 2.285156 -0.976562 "/></g></g></g><g fill="#185337" fill-opacity="1"><g transform="translate(32.426127, 9.137662)"><g><path d="M 1.285156 0.0507812 C 1.621094 0.0507812 1.863281 -0.214844 1.863281 -0.546875 L 1.863281 -3.351562 L 2.242188 -3.351562 C 2.574219 -3.351562 2.816406 -3.511719 2.816406 -3.875 C 2.816406 -4.246094 2.574219 -4.40625 2.242188 -4.40625 L 1.863281 -4.40625 L 1.863281 -5.289062 C 1.863281 -5.621094 1.621094 -5.886719 1.285156 -5.886719 C 0.953125 -5.886719 0.710938 -5.621094 0.710938 -5.289062 L 0.710938 -4.40625 L 0.554688 -4.40625 C 0.117188 -4.40625 -0.0820312 -4.230469 -0.0820312 -3.875 C -0.0820312 -3.527344 0.117188 -3.351562 0.5625 -3.351562 L 0.710938 -3.351562 L 0.710938 -0.546875 C 0.710938 -0.214844 0.953125 0.0507812 1.285156 0.0507812 Z M 1.285156 0.0507812 "/></g></g></g><g fill="#185337" fill-opacity="1"><g transform="translate(35.15808, 9.137662)"><g><path d="M 2.367188 0.117188 C 2.988281 0.117188 3.609375 -0.0664062 3.980469 -0.339844 C 4.207031 -0.496094 4.339844 -0.695312 4.339844 -0.902344 C 4.339844 -1.175781 4.140625 -1.398438 3.851562 -1.398438 C 3.765625 -1.398438 3.660156 -1.359375 3.519531 -1.273438 C 3.179688 -1.058594 2.847656 -0.933594 2.492188 -0.933594 C 1.828125 -0.933594 1.433594 -1.292969 1.40625 -1.8125 L 3.839844 -1.8125 C 4.238281 -1.8125 4.40625 -1.960938 4.40625 -2.335938 C 4.40625 -3.484375 3.59375 -4.519531 2.351562 -4.519531 C 1.058594 -4.519531 0.164062 -3.445312 0.164062 -2.203125 C 0.164062 -0.894531 1.019531 0.117188 2.367188 0.117188 Z M 1.40625 -2.617188 C 1.433594 -3.105469 1.839844 -3.542969 2.316406 -3.542969 C 2.804688 -3.542969 3.21875 -3.105469 3.238281 -2.617188 Z M 1.40625 -2.617188 "/></g></g></g><g fill="#185337" fill-opacity="1"><g transform="translate(39.703055, 9.137662)"><g/></g></g><g fill="#185337" fill-opacity="1"><g transform="translate(41.938287, 9.137662)"><g><path d="M 1.324219 1.828125 C 1.605469 1.828125 1.753906 1.746094 1.953125 1.292969 L 3.800781 -3.238281 C 3.925781 -3.527344 4 -3.742188 4 -3.875 C 4 -4.222656 3.765625 -4.453125 3.410156 -4.453125 C 3.144531 -4.453125 2.945312 -4.261719 2.789062 -3.851562 L 2.003906 -1.804688 L 1.988281 -1.804688 L 1.175781 -4 C 1.027344 -4.378906 0.785156 -4.453125 0.578125 -4.453125 C 0.257812 -4.453125 0.015625 -4.230469 0.015625 -3.914062 C 0.015625 -3.773438 0.199219 -3.359375 0.257812 -3.210938 L 1.398438 -0.355469 L 0.953125 0.6875 C 0.851562 0.902344 0.761719 1.117188 0.761719 1.308594 C 0.761719 1.582031 0.976562 1.828125 1.324219 1.828125 Z M 1.324219 1.828125 "/></g></g></g><g fill="#185337" fill-opacity="1"><g transform="translate(45.953429, 9.137662)"><g><path d="M 2.285156 0.117188 C 3.550781 0.117188 4.40625 -0.886719 4.40625 -2.203125 C 4.40625 -3.542969 3.527344 -4.519531 2.285156 -4.519531 C 1.027344 -4.519531 0.164062 -3.519531 0.164062 -2.203125 C 0.164062 -0.886719 1.019531 0.117188 2.285156 0.117188 Z M 2.285156 -0.976562 C 1.6875 -0.976562 1.324219 -1.488281 1.324219 -2.203125 C 1.324219 -2.914062 1.695312 -3.425781 2.277344 -3.425781 C 2.890625 -3.425781 3.246094 -2.90625 3.246094 -2.203125 C 3.246094 -1.488281 2.871094 -0.976562 2.285156 -0.976562 Z M 2.285156 -0.976562 "/></g></g></g><g fill="#185337" fill-opacity="1"><g transform="translate(50.523237, 9.137662)"><g><path d="M 2.285156 0.117188 C 3.46875 0.117188 4.222656 -0.546875 4.222656 -1.53125 L 4.222656 -3.859375 C 4.222656 -4.171875 3.980469 -4.453125 3.644531 -4.453125 C 3.3125 -4.453125 3.070312 -4.171875 3.070312 -3.859375 L 3.070312 -1.714844 C 3.070312 -1.25 2.742188 -0.933594 2.285156 -0.933594 C 1.820312 -0.933594 1.5 -1.25 1.5 -1.714844 L 1.5 -3.859375 C 1.5 -4.1875 1.257812 -4.453125 0.925781 -4.453125 C 0.585938 -4.453125 0.347656 -4.1875 0.347656 -3.859375 L 0.347656 -1.53125 C 0.347656 -0.523438 1.109375 0.117188 2.285156 0.117188 Z M 2.285156 0.117188 "/></g></g></g><g fill="#185337" fill-opacity="1"><g transform="translate(55.093049, 9.137662)"><g><path d="M 0.925781 0.0507812 C 1.257812 0.0507812 1.5 -0.214844 1.5 -0.546875 L 1.5 -2.285156 C 1.5 -2.839844 1.664062 -3.136719 2.285156 -3.296875 C 2.957031 -3.476562 3.023438 -3.675781 3.023438 -3.925781 C 3.023438 -4.253906 2.757812 -4.519531 2.410156 -4.519531 C 2.078125 -4.519531 1.761719 -4.304688 1.507812 -3.957031 L 1.488281 -3.957031 L 1.472656 -4.074219 C 1.414062 -4.273438 1.25 -4.453125 0.917969 -4.453125 C 0.585938 -4.453125 0.347656 -4.1875 0.347656 -3.859375 L 0.347656 -0.546875 C 0.347656 -0.214844 0.585938 0.0507812 0.925781 0.0507812 Z M 0.925781 0.0507812 "/></g></g></g><g fill="#185337" fill-opacity="1"><g transform="translate(57.94918, 9.137662)"><g/></g></g><g fill="#185337" fill-opacity="1"><g transform="translate(60.184412, 9.137662)"><g><path d="M 0.960938 0.0507812 C 1.324219 0.0507812 1.554688 -0.183594 1.554688 -0.570312 L 1.554688 -1.96875 L 2.617188 -1.96875 C 3.800781 -1.96875 4.5625 -2.730469 4.5625 -3.980469 C 4.5625 -5.183594 3.617188 -5.894531 2.609375 -5.894531 L 0.960938 -5.894531 C 0.621094 -5.894531 0.363281 -5.644531 0.363281 -5.316406 L 0.363281 -0.570312 C 0.363281 -0.183594 0.605469 0.0507812 0.960938 0.0507812 Z M 1.554688 -3.03125 L 1.554688 -4.835938 L 2.375 -4.835938 C 2.9375 -4.835938 3.328125 -4.488281 3.328125 -3.925781 C 3.328125 -3.425781 2.929688 -3.03125 2.375 -3.03125 Z M 1.554688 -3.03125 "/></g></g></g><g fill="#185337" fill-opacity="1"><g transform="translate(64.845293, 9.137662)"><g><path d="M 0.902344 0.0507812 C 1.242188 0.0507812 1.480469 -0.214844 1.480469 -0.546875 L 1.480469 -5.785156 C 1.480469 -6.109375 1.257812 -6.375 0.902344 -6.375 C 0.5625 -6.375 0.332031 -6.109375 0.332031 -5.785156 L 0.332031 -0.546875 C 0.332031 -0.214844 0.5625 0.0507812 0.902344 0.0507812 Z M 0.902344 0.0507812 "/></g></g></g><g fill="#185337" fill-opacity="1"><g transform="translate(66.650037, 9.137662)"><g><path d="M 2.136719 0.117188 C 2.632812 0.117188 2.988281 -0.0507812 3.269531 -0.421875 L 3.285156 -0.421875 L 3.304688 -0.332031 C 3.359375 -0.132812 3.519531 0.0507812 3.832031 0.0507812 C 4.171875 0.0507812 4.394531 -0.214844 4.394531 -0.546875 L 4.394531 -3.859375 C 4.394531 -4.1875 4.171875 -4.453125 3.832031 -4.453125 C 3.519531 -4.453125 3.359375 -4.273438 3.304688 -4.074219 L 3.285156 -3.980469 L 3.269531 -3.980469 C 2.972656 -4.355469 2.632812 -4.519531 2.136719 -4.519531 C 1.019531 -4.519531 0.164062 -3.5 0.164062 -2.203125 C 0.164062 -0.894531 1.011719 0.117188 2.136719 0.117188 Z M 2.285156 -0.976562 C 1.695312 -0.976562 1.324219 -1.488281 1.324219 -2.203125 C 1.324219 -2.90625 1.695312 -3.425781 2.277344 -3.425781 C 2.890625 -3.425781 3.246094 -2.90625 3.246094 -2.203125 C 3.246094 -1.488281 2.882812 -0.976562 2.285156 -0.976562 Z M 2.285156 -0.976562 "/></g></g></g><g fill="#185337" fill-opacity="1"><g transform="translate(71.368864, 9.137662)"><g><path d="M 2.277344 0.117188 C 2.617188 0.117188 2.988281 0.0429688 3.269531 -0.109375 C 3.550781 -0.25 3.742188 -0.457031 3.742188 -0.703125 C 3.742188 -0.96875 3.519531 -1.207031 3.261719 -1.207031 C 3.1875 -1.207031 3.070312 -1.152344 2.914062 -1.101562 C 2.757812 -1.042969 2.550781 -0.984375 2.292969 -0.984375 C 1.695312 -0.984375 1.324219 -1.515625 1.324219 -2.210938 C 1.324219 -2.898438 1.695312 -3.417969 2.351562 -3.417969 C 2.617188 -3.417969 2.78125 -3.351562 2.988281 -3.261719 C 3.070312 -3.21875 3.164062 -3.195312 3.253906 -3.195312 C 3.542969 -3.195312 3.742188 -3.4375 3.742188 -3.742188 C 3.742188 -4.007812 3.578125 -4.207031 3.296875 -4.328125 C 3.039062 -4.453125 2.691406 -4.519531 2.300781 -4.519531 C 1.042969 -4.519531 0.164062 -3.5 0.164062 -2.195312 C 0.164062 -0.910156 1.042969 0.117188 2.277344 0.117188 Z M 2.277344 0.117188 "/></g></g></g><g fill="#185337" fill-opacity="1"><g transform="translate(75.168762, 9.137662)"><g><path d="M 2.367188 0.117188 C 2.988281 0.117188 3.609375 -0.0664062 3.980469 -0.339844 C 4.207031 -0.496094 4.339844 -0.695312 4.339844 -0.902344 C 4.339844 -1.175781 4.140625 -1.398438 3.851562 -1.398438 C 3.765625 -1.398438 3.660156 -1.359375 3.519531 -1.273438 C 3.179688 -1.058594 2.847656 -0.933594 2.492188 -0.933594 C 1.828125 -0.933594 1.433594 -1.292969 1.40625 -1.8125 L 3.839844 -1.8125 C 4.238281 -1.8125 4.40625 -1.960938 4.40625 -2.335938 C 4.40625 -3.484375 3.59375 -4.519531 2.351562 -4.519531 C 1.058594 -4.519531 0.164062 -3.445312 0.164062 -2.203125 C 0.164062 -0.894531 1.019531 0.117188 2.367188 0.117188 Z M 1.40625 -2.617188 C 1.433594 -3.105469 1.839844 -3.542969 2.316406 -3.542969 C 2.804688 -3.542969 3.21875 -3.105469 3.238281 -2.617188 Z M 1.40625 -2.617188 "/></g></g></g><g fill="#185337" fill-opacity="1"><g transform="translate(79.713731, 9.137662)"><g><path d="M 0.925781 0.0507812 C 1.257812 0.0507812 1.5 -0.214844 1.5 -0.546875 L 1.5 -2.699219 C 1.5 -3.152344 1.789062 -3.535156 2.21875 -3.535156 C 2.691406 -3.535156 2.929688 -3.144531 2.929688 -2.707031 L 2.929688 -0.546875 C 2.929688 -0.214844 3.171875 0.0507812 3.511719 0.0507812 C 3.851562 0.0507812 4.089844 -0.214844 4.089844 -0.546875 L 4.089844 -2.707031 C 4.089844 -3.179688 4.386719 -3.535156 4.808594 -3.535156 C 5.257812 -3.535156 5.523438 -3.171875 5.523438 -2.707031 L 5.523438 -0.546875 C 5.523438 -0.214844 5.761719 0.0507812 6.09375 0.0507812 C 6.433594 0.0507812 6.671875 -0.214844 6.671875 -0.546875 L 6.671875 -3.011719 C 6.671875 -3.925781 6.050781 -4.519531 5.074219 -4.519531 C 4.644531 -4.519531 4.246094 -4.339844 3.816406 -3.941406 C 3.585938 -4.289062 3.121094 -4.519531 2.625 -4.519531 C 2.085938 -4.519531 1.730469 -4.347656 1.507812 -4 L 1.488281 -4 L 1.480469 -4.074219 C 1.425781 -4.273438 1.25 -4.453125 0.925781 -4.453125 C 0.585938 -4.453125 0.347656 -4.1875 0.347656 -3.859375 L 0.347656 -0.546875 C 0.347656 -0.214844 0.585938 0.0507812 0.925781 0.0507812 Z M 0.925781 0.0507812 "/></g></g></g><g fill="#185337" fill-opacity="1"><g transform="translate(86.734022, 9.137662)"><g><path d="M 2.367188 0.117188 C 2.988281 0.117188 3.609375 -0.0664062 3.980469 -0.339844 C 4.207031 -0.496094 4.339844 -0.695312 4.339844 -0.902344 C 4.339844 -1.175781 4.140625 -1.398438 3.851562 -1.398438 C 3.765625 -1.398438 3.660156 -1.359375 3.519531 -1.273438 C 3.179688 -1.058594 2.847656 -0.933594 2.492188 -0.933594 C 1.828125 -0.933594 1.433594 -1.292969 1.40625 -1.8125 L 3.839844 -1.8125 C 4.238281 -1.8125 4.40625 -1.960938 4.40625 -2.335938 C 4.40625 -3.484375 3.59375 -4.519531 2.351562 -4.519531 C 1.058594 -4.519531 0.164062 -3.445312 0.164062 -2.203125 C 0.164062 -0.894531 1.019531 0.117188 2.367188 0.117188 Z M 1.40625 -2.617188 C 1.433594 -3.105469 1.839844 -3.542969 2.316406 -3.542969 C 2.804688 -3.542969 3.21875 -3.105469 3.238281 -2.617188 Z M 1.40625 -2.617188 "/></g></g></g><g fill="#185337" fill-opacity="1"><g transform="translate(91.278997, 9.137662)"><g><path d="M 0.925781 0.0507812 C 1.257812 0.0507812 1.5 -0.214844 1.5 -0.546875 L 1.5 -2.707031 C 1.5 -3.171875 1.8125 -3.535156 2.285156 -3.535156 C 2.765625 -3.535156 3.070312 -3.179688 3.070312 -2.730469 L 3.070312 -0.546875 C 3.070312 -0.230469 3.3125 0.0507812 3.644531 0.0507812 C 3.980469 0.0507812 4.222656 -0.230469 4.222656 -0.546875 L 4.222656 -3.023438 C 4.222656 -3.925781 3.601562 -4.519531 2.625 -4.519531 C 2.085938 -4.519531 1.730469 -4.347656 1.507812 -4 L 1.488281 -4 L 1.480469 -4.074219 C 1.425781 -4.273438 1.25 -4.453125 0.925781 -4.453125 C 0.585938 -4.453125 0.347656 -4.1875 0.347656 -3.859375 L 0.347656 -0.546875 C 0.347656 -0.214844 0.585938 0.0507812 0.925781 0.0507812 Z M 0.925781 0.0507812 "/></g></g></g><g clip-path="url(#cf73cff017)"><g fill="#185337" fill-opacity="1"><g transform="translate(95.848809, 9.137662)"><g><path d="M 1.285156 0.0507812 C 1.621094 0.0507812 1.863281 -0.214844 1.863281 -0.546875 L 1.863281 -3.351562 L 2.242188 -3.351562 C 2.574219 -3.351562 2.816406 -3.511719 2.816406 -3.875 C 2.816406 -4.246094 2.574219 -4.40625 2.242188 -4.40625 L 1.863281 -4.40625 L 1.863281 -5.289062 C 1.863281 -5.621094 1.621094 -5.886719 1.285156 -5.886719 C 0.953125 -5.886719 0.710938 -5.621094 0.710938 -5.289062 L 0.710938 -4.40625 L 0.554688 -4.40625 C 0.117188 -4.40625 -0.0820312 -4.230469 -0.0820312 -3.875 C -0.0820312 -3.527344 0.117188 -3.351562 0.5625 -3.351562 L 0.710938 -3.351562 L 0.710938 -0.546875 C 0.710938 -0.214844 0.953125 0.0507812 1.285156 0.0507812 Z M 1.285156 0.0507812 "/></g></g></g></g></g></g></svg>
