<svg xmlns="http://www.w3.org/2000/svg" viewBox="22 30 86 84" role="img" aria-label="Yeble icon">
  <path
    fill="#DAA520"
    d="M61.964844 79.207031C60.394531 77.222656 59.957031 75.859375 60.078125 73.363281C60.191406 71.054688 60.808594 69.546875 62.425781 67.625C63.808594 65.984375 64.679688 64.902344 65.960938 63.238281C67.84375 60.796875 69.53125 58.660156 69.839844 58.332031C69.972656 58.191406 70.332031 57.71875 70.640625 57.28125C70.945312 56.84375 71.289062 56.390625 71.40625 56.273438C71.519531 56.15625 71.8125 55.796875 72.054688 55.472656C72.296875 55.152344 72.617188 54.742188 72.765625 54.5625C72.917969 54.382812 73.351562 53.832031 73.730469 53.335938C74.109375 52.839844 75.433594 51.144531 76.671875 49.570312C78.980469 46.632812 80.28125 44.953125 82.632812 41.863281C84.730469 39.105469 85.433594 38.195312 85.753906 37.816406C85.917969 37.621094 86.753906 36.542969 87.613281 35.414062C89.808594 32.527344 91.023438 31.558594 93.628906 30.609375C94.644531 30.242188 95.109375 30.167969 96.601562 30.152344C98.695312 30.128906 99.652344 30.335938 101.484375 31.207031C104.019531 32.414062 106.1875 35.023438 106.886719 37.71875C107.246094 39.089844 107.203125 41.914062 106.804688 43.308594C106.089844 45.8125 104.917969 47.507812 102.765625 49.15625C101.9375 49.789062 100.542969 50.863281 99.664062 51.546875C98.785156 52.230469 97.628906 53.132812 97.09375 53.550781C96.558594 53.96875 96.046875 54.367188 95.957031 54.441406C95.867188 54.511719 94.546875 55.542969 93.015625 56.734375C91.488281 57.925781 89.636719 59.367188 88.898438 59.945312C88.164062 60.519531 87.136719 61.3125 86.617188 61.710938C86.097656 62.109375 85.492188 62.597656 85.273438 62.796875C85.050781 62.996094 84.820312 63.15625 84.761719 63.15625C84.699219 63.15625 84.53125 63.277344 84.386719 63.421875C84.152344 63.65625 81.929688 65.410156 80.445312 66.53125C79.679688 67.109375 77.433594 68.863281 74.257812 71.355469C72.738281 72.546875 70.316406 74.429688 68.875 75.53125C67.433594 76.636719 65.546875 78.101562 64.675781 78.789062C63.804688 79.472656 62.988281 80.03125 62.855469 80.03125C62.722656 80.03125 62.324219 79.660156 61.964844 79.207031Z"
  />
  <path
    fill="#DAA520"
    d="M70 83.789062C68.296875 83.457031 65.492188 82.433594 65.507812 82.152344C65.511719 82.089844 65.78125 81.847656 66.109375 81.613281C66.78125 81.132812 72.046875 77.222656 75.890625 74.355469C77.292969 73.308594 79.996094 71.304688 81.894531 69.902344C83.796875 68.5 85.742188 67.042969 86.21875 66.660156C86.699219 66.28125 88.042969 65.285156 89.210938 64.445312C90.378906 63.605469 91.578125 62.722656 91.875 62.488281C94.6875 60.265625 95.492188 59.726562 96.679688 59.261719C100.425781 57.800781 104.84375 59.53125 106.527344 63.117188C107.6875 65.59375 107.304688 68.761719 105.582031 70.9375C104.984375 71.691406 103.53125 72.820312 102.707031 73.164062C101.46875 73.6875 97.914062 74.992188 95.316406 75.882812C94.519531 76.15625 93.796875 76.429688 93.707031 76.496094C93.617188 76.558594 93.332031 76.664062 93.070312 76.726562C92.808594 76.789062 92.289062 76.980469 91.914062 77.152344C91.539062 77.320312 91.179688 77.460938 91.109375 77.460938C90.972656 77.460938 87.8125 78.613281 86.714844 79.066406C86.320312 79.226562 85.269531 79.617188 84.386719 79.929688C83.5 80.246094 81.765625 80.875 80.527344 81.335938C74.578125 83.550781 73.90625 83.746094 72.089844 83.808594C71.164062 83.839844 70.222656 83.832031 70 83.789062Z"
  />
  <path
    fill="#185337"
    d="M53.199219 91.691406C50.625 91.222656 48.761719 90.449219 46.394531 88.867188C44.339844 87.492188 41.828125 84.757812 40.769531 82.742188C40.519531 82.269531 39.359375 80.21875 38.1875 78.183594C37.015625 76.152344 35.898438 74.199219 35.699219 73.84375C35.183594 72.925781 33.058594 69.230469 32.882812 68.945312C32.800781 68.8125 32.539062 68.339844 32.304688 67.898438C32.066406 67.457031 30.84375 65.289062 29.585938 63.078125C28.328125 60.867188 27.175781 58.820312 27.027344 58.53125C26.9375 58.25 24.621094 55.0625 23.257812 54.121094C23.046875 53.980469 22.914062 53.800781 22.960938 53.730469C28.039062 53.941406 35.234375 52.839844 39.984375 54.257812C42.789062 55.253906 44.90625 57.074219 46.613281 59.949219C47.191406 60.921875 47.664062 61.746094 47.664062 61.785156C47.664062 61.824219 47.890625 62.242188 48.164062 62.707031C48.441406 63.175781 49.261719 64.609375 49.988281 65.890625C50.71875 67.171875 51.601562 68.726562 51.957031 69.34375C52.308594 69.964844 52.851562 70.941406 53.160156 71.515625C53.46875 72.089844 54.234375 73.464844 54.863281 74.570312C55.488281 75.671875 56.277344 77.070312 56.613281 77.675781C58.964844 81.902344 61.4375 84.292969 64.957031 85.75C66.535156 86.402344 68.933594 86.945312 70.257812 86.945312C70.734375 86.945312 71.125 87 71.125 87.066406C71.125 87.136719 70.386719 87.511719 69.480469 87.902344C68.039062 88.519531 65.347656 89.71875 63.332031 90.632812C62.359375 91.074219 60.570312 91.574219 59.3125 91.757812C57.789062 91.976562 54.585938 91.941406 53.199219 91.691406Z"
  />
  <path
    fill="#185337"
    d="M47.074219 113.738281C47.03125 113.671875 47.570312 112.550781 48.273438 111.25C49.550781 108.875 50.429688 107.214844 52 104.21875C53.179688 101.964844 53.828125 101.023438 55.042969 99.800781C56.617188 98.210938 56.351562 98.375 64.699219 93.898438C69.542969 91.300781 71.734375 90.113281 77.363281 87.027344C78.453125 86.433594 79.375 85.980469 79.417969 86.019531C79.488281 86.089844 76.730469 91.617188 75.871094 93.132812C75.441406 93.886719 74.234375 96.136719 73.882812 96.828125C73.75 97.09375 72.882812 98.71875 71.957031 100.445312C71.03125 102.167969 69.765625 104.554688 69.144531 105.746094C67.464844 108.96875 66.222656 110.523438 64.296875 111.8125C62.941406 112.71875 62.234375 113.050781 60.761719 113.464844C59.535156 113.808594 59.179688 113.824219 53.3125 113.84375C49.921875 113.855469 47.117188 113.808594 47.074219 113.738281Z"
  />
</svg>
